<svg id="Layer_1" data-name="Layer 1" xmlns="http://www.w3.org/2000/svg" viewBox="0 0 600 600"><path d="M273.46,250.07c-9.74-3.45-18-4.21-28.47-4.21-42.7,0-67.42,26.79-67.42,73.1,0,45.54,23.6,70.42,66.67,70.42a163,163,0,0,0,28.84-2.3v-137Zm-3-201.31h84.28v395c-43.07,8.42-74.91,11.48-109.37,11.48-103,0-156.57-47.08-156.57-137.4,0-86.88,56.93-143.52,145-143.52a144.1,144.1,0,0,1,36.7,4.21Z"/><path d="M400.06,48.76h84.28V136.4H400.06ZM493,185V382.87c0,68.13-4.86,101-19.47,129C459.62,539,441.64,556.25,404.56,575l-78.29-37.51c37.09-17.6,55.44-33.29,66.68-57,12-24.5,15.73-52.44,15.73-127.07V185Z"/></svg>