<svg id="Layer_1" data-name="Layer 1" xmlns="http://www.w3.org/2000/svg" viewBox="0 0 600 600"><path d="M277.51,30.83c13.72-7.63,31.26-8,45,0C391.09,69.7,459.7,108.2,527.92,147.07a42.6,42.6,0,0,1,21.34,36.59V416.53c0,15.63-9.53,30.11-22.87,37.36q-102.33,57.74-205,115.48A44.92,44.92,0,0,1,276,568.23c-20.58-11.82-41.16-23.63-61.36-35.45-4.2-2.67-8.77-4.57-11.82-8.38,2.67-3.43,7.24-3.82,11.05-5.34,8.39-2.67,16.39-7.24,24.4-11.43,1.9-1.53,4.57-.77,6.48.38,17.53,9.91,34.68,20.2,52.59,30.49,3.81,2.28,7.62-.76,10.67-2.67q100.62-56.6,201.24-113.58a7.36,7.36,0,0,0,3.81-6.48V185.19a7.17,7.17,0,0,0-4.19-7.25c-68.22-38.49-136.06-76.6-204.29-115.1a7.59,7.59,0,0,0-8,0c-68.22,38.5-136.07,76.61-204.29,115.1a7.18,7.18,0,0,0-4.19,7.25V415.77a6.17,6.17,0,0,0,3.81,6.48c18.3,10.29,36.21,20.58,54.5,30.87,10.29,5.34,22.87,8.77,33.92,4.58,9.91-3.43,16.77-13.72,16.77-24.4V204.24c-.38-3.43,3-6.1,6.1-5.72h26.3c3.81,0,6.1,3.44,5.72,6.87V436c0,20.58-8.39,42.69-27.44,53-23.25,12.2-52.22,9.53-75.47-1.91-19.82-9.9-38.87-21.72-58.69-32.39A42.78,42.78,0,0,1,50.74,417.3V184.42a42.67,42.67,0,0,1,22.1-37c67.84-39.63,136.07-78.13,204.67-116.62"/><path d="M337,192.05c29.73-1.91,61.74-1.15,88.42,13.72,20.58,11,32.4,34.68,32.78,57.93a6.26,6.26,0,0,1-6.86,4.57H425.39c-3.81,0-5.71-3.43-6.1-6.48-2.66-11.05-8.38-22.1-19.05-27.44-16-8-34.3-7.62-51.84-7.24-12.57.76-26.3,1.91-37,9.15-8.38,5.71-10.67,17.15-7.62,26.3,2.67,6.48,10.29,8.76,16.77,10.67,35.83,9.53,73.94,8.38,109,21,14.49,5,29,14.86,33.93,30.11,6.48,20.58,3.81,45-11.06,61.36-11.81,13.34-29,21-46.11,24.78-22.87,4.95-46.5,5.33-69.75,3.05-21.73-2.29-44.59-8.39-61.36-22.87-14.49-12.58-21.35-32-20.59-50.69,0-3.05,3.43-5.34,6.48-5h26.3c3.43-.38,6.1,2.67,6.1,6.1,1.52,10.67,5.72,21.72,14.86,27.82,17.54,11.44,40,10.67,60.22,11.06,16.77-.77,35.45-1.15,49.17-12.2C425,361.27,427.3,351,425,341.83c-2.28-7.62-10.29-11.43-17.15-13.72-35.44-11.05-73.94-7.24-109-19.82-14.11-5-28.21-14.48-33.54-29.34-7.63-20.59-4.2-46.5,11.81-62.13,15.63-16.39,38.11-22.49,59.84-24.77"/></svg>