<svg id="Layer_1" data-name="Layer 1" xmlns="http://www.w3.org/2000/svg" viewBox="0 0 600 600"><path d="M564.84,274.89,324.67,34.71a35.36,35.36,0,0,0-50.16,0L224.72,84.5l63.34,63.34a41.73,41.73,0,0,1,43.2,10.25,42.17,42.17,0,0,1,9.88,43.57l61.14,61.14A42.09,42.09,0,1,1,377,286.6l-56.75-56.75V379.6c4,2.19,8.06,4.76,11,8a42.2,42.2,0,1,1-59.68,0,43.65,43.65,0,0,1,13.91-9.15V227.66a43.85,43.85,0,0,1-13.91-9.16,42.56,42.56,0,0,1-9.15-46.13l-62.24-62.24L35.43,274.89a35.35,35.35,0,0,0,0,50.15L275.61,565.22a35.36,35.36,0,0,0,50.16,0L564.84,326.14c13.55-15,13.55-37.34,0-51.25"/></svg>