<svg id="Layer_1" data-name="Layer 1" xmlns="http://www.w3.org/2000/svg" viewBox="0 0 600 600"><defs><style>.cls-1{fill:#231f20;}</style></defs><path class="cls-1" d="M528.35,481.54c-18,61-117.45,63-157.55,22.91-8.6-9.41-13.51-14.32-18.83-25.37,21.28-12.27,21.28-12.27,41.74-24.14,11.05,17.19,21.69,26.6,40.11,30.69,25.37,3.27,50.74-5.73,45-32.33-5.73-22.1-51.56-27.42-83.07-50.74-31.51-21.28-39.29-72.85-13.1-102.31,8.6-11.05,23.33-19.23,38.88-22.92,5.32-.81,10.64-1.22,16.37-2,31.1-.41,50.33,7.77,64.66,23.32,4.09,4.1,7.36,8.19,13.09,17.6-16.37,10.64-16.37,10.64-40.1,25.78a38.5,38.5,0,0,0-22.51-20.87c-13.91-4.09-31.1.41-34.78,15.14-1.23,4.5-.82,8.6.81,16,5.73,12.69,24.56,18.42,41.34,26.19,48.29,19.65,64.65,40.52,68.75,65.89,4.5,21.28,0,35.19-.82,37.24M314.73,496.27c-8.18,16.37-23.73,27.42-41.33,32.33-27.42,6.14-54,2.86-73.66-9-13.1-8.19-23.33-20.47-30.28-34.79L211.2,459c.41,0,1.63,2.05,2.86,4.5,5.32,9,9.82,15.14,18.83,19.64,9,2.87,28.23,4.92,36-10.64,4.5-7.77,3.27-34,3.27-62.2,0-44.6.41-88.39.41-133h51.56c0,47.47.41,94.54,0,141.6,0,29.46,2.46,55.65-9.41,77.34M25,575.25H575v-550H25Z"/></svg>