<svg id="Layer_1" data-name="Layer 1" xmlns="http://www.w3.org/2000/svg" viewBox="0 0 600 600"><path d="M340.6,469.21a230.59,230.59,0,0,1-20.9,18.4c-.31-.62-.94-1.24-1.25-1.87a52,52,0,0,1-6.24-18.09c-.62-3.43-1.24-6.87-1.56-9.36V78.62a88.12,88.12,0,0,0,7.18,8.11A325.11,325.11,0,0,1,350,123.23c21.53,28.39,37.75,61.15,49.92,100.77a243.44,243.44,0,0,1,10.6,68c1.25,68.63-22.46,128.22-69.88,177.2m-52.1,16.53c-.31,1.25-.31,2.5-.62,3.74-6.24-5.3-11.86-10-16.85-15-34.31-33.69-57.09-69.57-69.88-109.81-5-15.91-11.23-72.07-10-87.67,3.12-46.48,14.66-87.35,34.63-125.09,16.53-30.89,36.19-55.85,59.9-76.12l1.56-1.25c2.49-2.19,5-4.37,7.17-6.55V443.31ZM415.79,219.63h0c-12.79-41.49-30-76.12-52.73-106.07A354.12,354.12,0,0,0,329.37,75.5a64.83,64.83,0,0,1-9.05-11.23l-9.67-22.46-3.43-7.17-2.49-6.56L291.94,25l3.74,6.86-2.5,7.49c0,2.18-3.74,7.79-5.61,10.29-.63,1.25-1.56,2.18-1.87,2.81A56.72,56.72,0,0,1,276,62.09l-1.56,1.25c-24.95,21.84-45.85,48-63.64,80.8-21.21,39.62-33.07,82.67-36.5,131.65-1.56,17.16,5,76.12,10.61,93.9,13.73,43.05,37.75,81.11,73.94,116.68a266.92,266.92,0,0,0,23.39,20v.31c5,15,6.24,30.58,6.87,43.68v6.55c0,6.24.62,10.92,8.42,13.73l2.18.93,2.81.94a20,20,0,0,1,2.5.94l2.18,1.56H310c5,0,10.29-3.75,10.29-11.55l-.93-8.73V527.86c-.31-2.81.31-5.93.62-9.05l.31-3.12c.32-4.05,2.5-8.11,4.68-12.17a225.65,225.65,0,0,0,26.21-22.46c50.85-52.41,75.81-115.74,74.56-188.74.94-24.33-2.81-48.67-10-72.69"/></svg>