<svg id="Layer_1" data-name="Layer 1" xmlns="http://www.w3.org/2000/svg" viewBox="0 0 600 600"><path d="M490.28,364.52a313.64,313.64,0,0,1-31.94,12.57c-6.47-24.27-15.36-49.4-25.87-75.4a613.64,613.64,0,0,0,25.47-75c11.32,3.9,22.23,8.24,32.34,12.57,40.83,18.63,67.11,43.33,67.11,62.4,0,19.5-26.28,44.2-67.11,62.83m-44.47,82.34c5.25,47.23-1.21,84.06-17,93.6-3.64,2.16-8.09,3-13.34,3-23.86,0-59.43-20.37-97-57.63a612.69,612.69,0,0,0,47.7-61.54c26.28-3,50.94-7.36,73.58-13.43,2.43,12.57,4.45,24.27,6.07,36m-273.7,94c-15.77-9.53-22.64-46.37-17.39-93.6a314.26,314.26,0,0,1,6.07-36.4c22.64,6.07,47.3,10.4,73.17,13.43a632.89,632.89,0,0,0,48.11,62c-37.6,37.27-72.77,58.07-97,58.07a23.17,23.17,0,0,1-12.93-3.47M109.85,364.52C69,345.89,42.74,321.19,42.74,302.12c0-19.5,26.27-44.2,67.11-62.4a315,315,0,0,1,31.94-12.56c6.46,24.26,15.36,49.4,25.87,75.4a613.51,613.51,0,0,0-25.47,75c-11.32-4.33-22.24-8.66-32.34-13m104.3-155.13c-5.66,9.53-11.32,19.5-16.57,29.47s-10.11,19.93-15,29.46c-6.07-16.46-11.73-32.93-15.77-49.4,15-3.46,31.13-6.93,47.3-9.53m85.71-72.8c10.92,11.7,21.43,25.13,31.94,39.43-10.51-.43-21-.86-31.53-.86-10.92,0-21.43.43-31.94.86a376.77,376.77,0,0,1,31.53-39.43M214.56,394c-16.58-2.6-32.35-5.63-47.3-10,4.44-16,9.7-32.5,15.76-49,4.85,10,9.71,19.93,15,29.9s10.92,19.5,16.58,29m85.71,72.8c-10.92-11.7-21.43-25.13-31.94-39.43,10.51.43,21,.86,31.94.86s21.42-.43,31.93-.86c-10.51,14.3-21.42,27.73-31.93,39.43M417.1,335.06c6.07,16.46,11.73,32.93,15.77,49.4-15,3.9-31.13,7.36-47.7,10,5.66-9.53,11.32-19.5,16.57-29.46,5.66-10,10.92-20.37,15.36-29.9m-37.19,16C371,368,361.72,383.59,352,398.32q-26.07,2.61-52.15,2.6c-17.38,0-34.77-.86-51.75-2.16q-14.55-22.11-27.89-46.8a547.72,547.72,0,0,1-23.86-49.4c7.28-16.47,15.37-32.94,23.86-49.4,8.89-16.9,18.19-32.5,27.89-47.24q26.08-2.59,52.16-2.6c17.38,0,34.76.87,51.74,2.17q14.57,22.09,27.9,46.8a546.34,546.34,0,0,1,23.85,49.4c-7.27,16.47-15,32.93-23.85,49.4m53-131.73c-4.45,16-9.7,32.5-15.77,49-4.85-10-9.7-19.93-15-29.9s-10.92-19.5-16.58-29c16.17,2.6,32.34,6.07,47.3,10m150.4,82.33c0-40.3-46.9-78.43-118.86-101.83C481,121,473.7,58.59,441,38.66c-7.68-4.77-16.17-6.93-25.88-6.93V59.46a30.71,30.71,0,0,1,13.34,3c15.77,9.53,22.64,46.37,17.39,93.6a312.13,312.13,0,0,1-6.07,36.4c-22.64-6.07-47.3-10.4-73.17-13.43-15.77-23-31.54-43.77-48.11-62,37.6-37.27,72.77-58.07,97-58.07V31.29c-31.54,0-73.18,24.27-115.22,66.3C258.22,56,216.58,31.73,185,31.73V59.46c23.86,0,59.43,20.36,97,57.63a613.66,613.66,0,0,0-47.7,61.53c-26.28,3-50.94,7.37-73.58,13.44-2.83-12.57-4.45-24.27-6.07-36-5.25-47.23,1.22-84.07,17-93.6,3.64-2.17,8.09-3,13.34-3V31.73c-9.7,0-18.59,2.16-26.27,6.93C126.42,58.59,119.15,121,135.72,199.42,63.76,223.26,17.27,261,17.27,301.26s46.89,78.43,118.86,101.83c-16.58,78.87-9.3,141.27,23.44,161.2,7.69,4.76,16.18,6.93,25.88,6.93,31.94,0,73.17-24.26,115.22-66.3,42.05,41.6,83.69,65.87,115.22,65.87,9.7,0,18.6-2.17,26.28-6.94,32.34-19.93,39.62-82.33,23-160.76,71.16-23.4,118.06-61.1,118.06-101.4"/><path d="M299.86,245.36c29.11,0,52.56,25.13,52.56,56.33S329,358,299.86,358s-52.56-25.13-52.56-56.33,23.45-56.33,52.56-56.33"/></svg>